<?xml version="1.0" encoding="utf-8"?>
<!-- Generator: Adobe Illustrator 16.0.0, SVG Export Plug-In . SVG Version: 6.00 Build 0)  -->
<!DOCTYPE svg PUBLIC "-//W3C//DTD SVG 1.1//EN" "http://www.w3.org/Graphics/SVG/1.1/DTD/svg11.dtd">
<svg version="1.1" id="Layer_1" xmlns="http://www.w3.org/2000/svg" xmlns:xlink="http://www.w3.org/1999/xlink" x="0px" y="0px"
	 width="200px" height="25px" viewBox="0 0 200 25" enable-background="new 0 0 200 25" xml:space="preserve">
<path fill="#FABB00" d="M127.401,20.497c0,0.812-0.657,1.466-1.466,1.466c-0.808,0-1.463-0.654-1.463-1.466
	c0-0.811,0.655-1.465,1.463-1.465C126.744,19.032,127.401,19.686,127.401,20.497"/>
<path fill="#FFFFFF" d="M12.149,19.196L12.149,19.196c2.323,0,3.488-0.874,3.488-2.639c0-1.883-1.014-2.826-3.046-2.826h0.54H8.756
	v-2.882h4.373h0.002H12.36c0.771,0,1.419-0.254,1.94-0.764c0.518-0.509,0.778-1.132,0.778-1.865c0-0.787-0.234-1.41-0.701-1.875
	c-0.461-0.464-1.097-0.697-1.904-0.697H4.601V2.768h7.711c1.703,0,3.042,0.477,4.02,1.438c0.976,0.963,1.464,2.24,1.464,3.842
	c0,1.759-0.729,3.121-2.184,4.081c1.921,0.747,2.882,2.378,2.882,4.887c0,2.91-2.713,5.066-6.369,5.066"/>
<path fill="#009037" d="M5.848,20.617c0,0.809-0.655,1.465-1.462,1.465c-0.809,0-1.466-0.656-1.466-1.465
	c0-0.81,0.658-1.466,1.466-1.466C5.193,19.151,5.848,19.807,5.848,20.617"/>
<path fill="#FABB00" d="M5.848,4.229c0,0.812-0.655,1.464-1.462,1.464c-0.809,0-1.466-0.652-1.466-1.464
	c0-0.807,0.658-1.461,1.466-1.461C5.193,2.768,5.848,3.421,5.848,4.229"/>
<path fill="#4F4794" d="M74.697,20.69c0,0.808,0.656,1.465,1.465,1.465c0.811,0,1.464-0.657,1.464-1.465
	c0-0.812-0.653-1.466-1.464-1.466C75.353,19.224,74.697,19.877,74.697,20.69"/>
<path fill="#4F4794" d="M194.313,4.151c0,0.809,0.655,1.465,1.464,1.465c0.812,0,1.465-0.656,1.465-1.465
	c0-0.811-0.653-1.464-1.465-1.464C194.969,2.688,194.313,3.34,194.313,4.151"/>
<path fill="#009037" d="M152.396,12.37c0,0.812,0.654,1.465,1.464,1.465s1.467-0.652,1.467-1.465c0-0.807-0.657-1.461-1.467-1.461
	S152.396,11.563,152.396,12.37"/>
<path fill="#E2001A" d="M53.93,4.066c0,0.81-0.656,1.469-1.464,1.469c-0.809,0-1.464-0.659-1.464-1.469
	c0-0.812,0.656-1.465,1.464-1.465C53.274,2.601,53.93,3.254,53.93,4.066"/>
<path fill="#FFFFFF" d="M53.93,13.667c0,5.825-3.235,8.753-8.252,8.753c-4.989,0-8.169-2.928-8.169-8.585V2.601h3.372v11.094
	c0,3.624,1.836,5.573,4.852,5.573c2.989,0,4.825-1.838,4.825-5.434V9.077h3.373V13.667z"/>
<polygon fill="#FFFFFF" points="87.833,2.632 91.151,2.632 91.151,22.144 88.327,22.144 77.744,8.261 77.744,8.265 74.428,3.949 
	74.428,2.632 77.553,2.632 87.833,16.124 "/>
<polygon fill="#FFFFFF" points="120.489,11.116 118.548,13.099 118.31,13.363 115.321,16.485 115.321,22.144 111.951,22.144 
	111.951,2.632 115.321,2.632 115.321,12.442 124.45,2.632 128.59,2.632 120.613,11.021 "/>
<polygon fill="#FFFFFF" points="161.919,5.698 151.063,5.698 151.063,9.49 151.063,10.77 151.063,13.834 151.063,14.622 
	151.063,19.078 162.056,19.078 162.056,22.144 147.69,22.144 147.69,2.632 161.919,2.632 "/>
<polyline fill="#FFFFFF" points="190.979,14.19 190.97,14.365 190.97,22.144 187.57,22.144 187.57,14.45 179.951,2.632 
	183.926,2.632 189.298,11.271 "/>
</svg>
